<svg width="26" height="33" viewBox="0 0 26 33" fill="none" xmlns="http://www.w3.org/2000/svg">
<path d="M6.5 32.5C10.088 32.5 13 30.0734 13 27.0834V21.6667H6.5C2.912 21.6667 0 24.0934 0 27.0834C0 30.0734 2.912 32.5 6.5 32.5Z" fill="#0ACF83"/>
<path d="M0 16.25C0 13.26 2.912 10.8334 6.5 10.8334H13V21.6667H6.5C2.912 21.6667 0 19.24 0 16.25Z" fill="#A259FF"/>
<path d="M0 5.41667C0 2.42667 2.912 0 6.5 0H13V10.8333H6.5C2.912 10.8333 0 8.40667 0 5.41667Z" fill="#F24E1E"/>
<path d="M13 0H19.5C23.088 0 26 2.42667 26 5.41667C26 8.40667 23.088 10.8333 19.5 10.8333H13V0Z" fill="#FF7262"/>
<path d="M26 16.25C26 19.24 23.088 21.6667 19.5 21.6667C15.912 21.6667 13 19.24 13 16.25C13 13.26 15.912 10.8334 19.5 10.8334C23.088 10.8334 26 13.26 26 16.25Z" fill="#1ABCFE"/>
</svg>
