<svg width="30" height="30" viewBox="0 0 30 30" fill="none" xmlns="http://www.w3.org/2000/svg">
<path d="M29.3182 0.681824H0.681824V29.3182H29.3182V0.681824Z" fill="url(#paint0_radial_20_140)"/>
<path d="M30 30H0V0H30V30ZM1.36364 28.6364H28.6364V1.36364H1.36364V28.6364Z" fill="#F47521"/>
<path d="M15.6818 16.3636H10.2273V19.0909H15.6818V16.3636Z" fill="#F47521"/>
<path d="M23.8636 12.9545H21.1364V23.1818H23.8636V12.9545Z" fill="#F47521"/>
<path d="M22.5 12.2727C23.2531 12.2727 23.8636 11.6622 23.8636 10.9091C23.8636 10.156 23.2531 9.54547 22.5 9.54547C21.7469 9.54547 21.1364 10.156 21.1364 10.9091C21.1364 11.6622 21.7469 12.2727 22.5 12.2727Z" fill="#F47521"/>
<path d="M11.5226 6.81818L6.28616 23.1818H9.15018L12.9545 11.2926L16.7589 23.1818H19.6229L14.3864 6.81818H11.5226Z" fill="#F47521"/>
<path d="M30 30H0V0H30V30Z" fill="url(#paint1_linear_20_140)"/>
<defs>
<radialGradient id="paint0_radial_20_140" cx="0" cy="0" r="1" gradientUnits="userSpaceOnUse" gradientTransform="translate(10.6818 7.04546) scale(23.984)">
<stop stop-color="#3C1605" stop-opacity="0.98"/>
<stop offset="1" stop-color="#1A1107"/>
</radialGradient>
<linearGradient id="paint1_linear_20_140" x1="-3.06624" y1="6.57557" x2="33.0662" y2="23.4244" gradientUnits="userSpaceOnUse">
<stop stop-color="white" stop-opacity="0.2"/>
<stop offset="1" stop-color="white" stop-opacity="0"/>
</linearGradient>
</defs>
</svg>
