<svg width="30" height="30" viewBox="0 0 30 30" fill="none" xmlns="http://www.w3.org/2000/svg">
<path d="M15 30C23.2843 30 30 23.2843 30 15C30 6.71573 23.2843 0 15 0C6.71573 0 0 6.71573 0 15C0 23.2843 6.71573 30 15 30Z" fill="#F0DB4F"/>
<path d="M10.32 9.17993H12.93V16.5299C12.93 19.8299 11.34 20.9999 8.81999 20.9999C8.18999 20.9999 7.40999 20.9099 6.89999 20.7299L7.19999 18.5999C7.55999 18.7199 8.03999 18.8099 8.54999 18.8099C9.65999 18.8099 10.35 18.2999 10.35 16.5299L10.32 9.17993Z" fill="#323330"/>
<path d="M15.24 18.1199C15.93 18.4799 17.04 18.8399 18.15 18.8399C19.35 18.8399 19.98 18.3299 19.98 17.5499C19.98 16.8299 19.44 16.4099 18.03 15.9299C16.11 15.2399 14.82 14.1599 14.82 12.4499C14.82 10.4999 16.5 8.99994 19.23 8.99994C20.55 8.99994 21.51 9.26994 22.2 9.59994L21.6 11.6999C21.15 11.4899 20.31 11.1599 19.2 11.1599C18.06 11.1599 17.52 11.6999 17.52 12.2699C17.52 13.0199 18.15 13.3499 19.68 13.9199C21.72 14.6699 22.68 15.7499 22.68 17.3999C22.68 19.3499 21.21 20.9999 18 20.9999C16.68 20.9999 15.36 20.6399 14.7 20.2799L15.24 18.1199Z" fill="#323330"/>
</svg>
