<svg id="visual" viewBox="0 0 900 600" width="900" height="600" xmlns="http://www.w3.org/2000/svg" xmlns:xlink="http://www.w3.org/1999/xlink" version="1.1"><path d="M0 380L21.5 382.5C43 385 86 390 128.8 398.8C171.7 407.7 214.3 420.3 257.2 429.2C300 438 343 443 385.8 441.5C428.7 440 471.3 432 514.2 418.2C557 404.3 600 384.7 642.8 388.2C685.7 391.7 728.3 418.3 771.2 419.2C814 420 857 395 878.5 382.5L900 370L900 601L878.5 601C857 601 814 601 771.2 601C728.3 601 685.7 601 642.8 601C600 601 557 601 514.2 601C471.3 601 428.7 601 385.8 601C343 601 300 601 257.2 601C214.3 601 171.7 601 128.8 601C86 601 43 601 21.5 601L0 601Z" fill="#ffdb89"></path><path d="M0 436L21.5 438.3C43 440.7 86 445.3 128.8 441.2C171.7 437 214.3 424 257.2 416.8C300 409.7 343 408.3 385.8 417.8C428.7 427.3 471.3 447.7 514.2 450.5C557 453.3 600 438.7 642.8 428.3C685.7 418 728.3 412 771.2 419.7C814 427.3 857 448.7 878.5 459.3L900 470L900 601L878.5 601C857 601 814 601 771.2 601C728.3 601 685.7 601 642.8 601C600 601 557 601 514.2 601C471.3 601 428.7 601 385.8 601C343 601 300 601 257.2 601C214.3 601 171.7 601 128.8 601C86 601 43 601 21.5 601L0 601Z" fill="#ddc186"></path><path d="M0 507L21.5 507.5C43 508 86 509 128.8 509.7C171.7 510.3 214.3 510.7 257.2 504.8C300 499 343 487 385.8 477.5C428.7 468 471.3 461 514.2 456.7C557 452.3 600 450.7 642.8 457C685.7 463.3 728.3 477.7 771.2 482.5C814 487.3 857 482.7 878.5 480.3L900 478L900 601L878.5 601C857 601 814 601 771.2 601C728.3 601 685.7 601 642.8 601C600 601 557 601 514.2 601C471.3 601 428.7 601 385.8 601C343 601 300 601 257.2 601C214.3 601 171.7 601 128.8 601C86 601 43 601 21.5 601L0 601Z" fill="#bba882"></path><path d="M0 501L21.5 506.8C43 512.7 86 524.3 128.8 527.3C171.7 530.3 214.3 524.7 257.2 519.8C300 515 343 511 385.8 510.2C428.7 509.3 471.3 511.7 514.2 508.3C557 505 600 496 642.8 493.7C685.7 491.3 728.3 495.7 771.2 503.8C814 512 857 524 878.5 530L900 536L900 601L878.5 601C857 601 814 601 771.2 601C728.3 601 685.7 601 642.8 601C600 601 557 601 514.2 601C471.3 601 428.7 601 385.8 601C343 601 300 601 257.2 601C214.3 601 171.7 601 128.8 601C86 601 43 601 21.5 601L0 601Z" fill="#9a907d"></path><path d="M0 571L21.5 570C43 569 86 567 128.8 561.3C171.7 555.7 214.3 546.3 257.2 547.8C300 549.3 343 561.7 385.8 560.3C428.7 559 471.3 544 514.2 536C557 528 600 527 642.8 530.8C685.7 534.7 728.3 543.3 771.2 547.3C814 551.3 857 550.7 878.5 550.3L900 550L900 601L878.5 601C857 601 814 601 771.2 601C728.3 601 685.7 601 642.8 601C600 601 557 601 514.2 601C471.3 601 428.7 601 385.8 601C343 601 300 601 257.2 601C214.3 601 171.7 601 128.8 601C86 601 43 601 21.5 601L0 601Z" fill="#787878"></path></svg>